<svg xmlns="http://www.w3.org/2000/svg" version="1.1" xmlns:xlink="http://www.w3.org/1999/xlink" width="1000" height="1000"><g clip-path="url(#SvgjsClipPath1072)"><rect width="1000" height="1000" fill="#fbcb03"></rect><g transform="matrix(25,0,0,25,0,0)"><svg xmlns="http://www.w3.org/2000/svg" version="1.1" xmlns:xlink="http://www.w3.org/1999/xlink" width="40" height="40"><svg width="40" height="40" viewBox="0 0 40 40" fill="none" xmlns="http://www.w3.org/2000/svg">
<g clip-path="url(#clip0_128_910)">
<path d="M18.2524 0.0790862C17.197 0.170949 15.6462 0.464912 14.5633 0.76806C8.51576 2.45834 3.45932 7.12499 1.22935 13.0685C-0.138003 16.7247 -0.376601 21.0698 0.57779 24.8638C1.47712 28.3821 3.04636 31.2207 5.53328 33.7745C7.28606 35.5658 8.99295 36.8152 11.2321 37.9175C12.7463 38.6708 13.6823 39.0291 15.1323 39.3874C21.3817 40.9582 27.9339 39.47 32.8619 35.3546C36.7162 32.1302 39.2765 27.3716 39.8638 22.3192C40.9651 12.8848 35.3305 4.04758 26.2638 0.997718C23.731 0.14339 21.0146 -0.159758 18.2524 0.0790862ZM21.5102 1.99903C23.8594 2.2195 25.9334 2.8258 28.1634 3.94653C31.7148 5.73786 34.4403 8.48457 36.2023 12.058C39.0196 17.7903 38.5883 24.6525 35.0735 29.9254C34.2201 31.2023 34.0274 31.4412 32.816 32.6722C31.3386 34.1603 29.9345 35.1892 28.09 36.117C26.8786 36.7233 26.9704 36.7325 26.6584 35.9609C26.2913 35.0422 25.8324 34.243 25.2084 33.4071C24.7129 32.7548 24.6762 32.663 24.6762 32.2128C24.6762 31.4228 24.2082 30.8165 22.8224 29.8336C22.4829 29.6039 22.382 29.4661 22.382 29.2916C22.3911 29.016 22.5288 28.2811 22.5839 28.226C22.6022 28.2076 23.006 28.2719 23.4832 28.3638C24.5569 28.5842 25.4195 28.5934 26.0527 28.3913C26.6859 28.1892 27.3466 27.5829 27.6128 26.9674C27.8422 26.4255 28.1083 24.9924 28.2093 23.743L28.2735 22.9347L28.6222 22.7601C29.0535 22.5396 29.5399 21.9885 29.5399 21.7221C29.5399 21.6026 29.4206 21.327 29.2738 21.0974C29.0168 20.684 29.0168 20.6748 29.182 20.4543C29.5124 20.0226 29.6592 19.3979 29.6133 18.5436C29.5858 17.8638 29.5307 17.6709 29.3013 17.2483C29.0627 16.8258 28.7323 16.541 28.3285 16.4032C28.2918 16.3848 28.2184 16.0541 28.1634 15.6499C28.0991 15.2549 27.9523 14.5751 27.833 14.1433C27.6403 13.4819 27.6219 13.3441 27.7321 13.2798C28.2918 12.9675 29.0719 12.2601 29.4573 11.709C30.0446 10.8638 30.274 10.1289 30.274 9.06331C30.274 7.84153 30.0354 6.95045 29.8611 7.51082C29.7968 7.70373 29.2004 8.45701 29.0719 8.50294C29.026 8.52131 28.9893 8.33759 28.9893 8.08956C28.9801 7.18011 28.6314 6.06857 28.09 5.22343L27.9431 5.01214L27.7596 5.23261C27.1998 5.89403 25.9334 6.7208 24.823 7.14337C24.5936 7.22604 24.566 7.21686 24.6303 7.07906C24.7312 6.81266 24.8964 5.7746 24.8414 5.71949C24.8138 5.69193 24.4651 5.80216 24.0705 5.95833C22.7031 6.50951 21.4551 6.7851 19.4454 7.00557C16.2427 7.34547 14.8661 7.85071 13.5997 9.1368L13.0216 9.71554V8.11712L12.6912 8.43864C12.1681 8.9347 11.9754 9.39402 11.9662 10.1014C11.9662 10.4504 11.9387 10.726 11.902 10.726C11.8653 10.726 11.5992 10.9557 11.2963 11.2313C10.6907 11.7825 10.2594 12.5633 10.0942 13.3901C9.68122 15.3376 10.0666 18.2404 10.966 20.0318C11.6909 21.4648 13.0032 23.247 14.4899 24.8087L15.4167 25.7732L15.3158 26.1774L15.2149 26.5724L12.838 26.5449L10.4521 26.5081L10.1859 26.7837C10.0208 26.9491 9.85557 27.2522 9.76381 27.5921C9.4885 28.6118 9.35085 28.869 8.66259 29.6499C7.76326 30.6787 7.49713 31.2299 7.44207 32.1577L7.39618 32.8834L6.9924 32.4792C5.02856 30.5777 3.23907 27.436 2.52328 24.6433C1.06416 18.9294 2.37645 12.9859 6.06554 8.56725C8.53411 5.60925 11.5166 3.67094 15.2699 2.60532C17.3806 2.00821 19.4178 1.80611 21.5102 1.99903ZM21.2257 13.7575C22.7307 13.8953 25.0524 13.8678 25.9609 13.7116C26.3922 13.6381 26.7501 13.5738 26.7501 13.5738C26.8052 13.5738 27.0071 14.2352 27.1631 14.9517C27.3466 15.7509 27.4568 17.6158 27.3375 17.7352C27.3099 17.7628 27.0989 17.8087 26.8694 17.8454C26.4565 17.9097 26.4381 17.9005 26.3555 17.6433C26.1353 17.0187 25.3185 16.4216 24.6945 16.4216C24.0521 16.4216 23.3547 16.8901 23.0152 17.5423L22.8408 17.8914H20.7301C18.7112 17.8914 18.6195 17.8822 18.6195 17.7168C18.6195 17.5423 19.0049 16.9819 19.5555 16.3481C19.9226 15.9163 19.9042 15.4754 19.4454 14.4465C19.2435 13.9964 19.0783 13.6197 19.0783 13.6014C19.0783 13.5646 19.427 13.5922 21.2257 13.7575ZM16.0041 18.5712C16.4262 18.7549 17.0686 19.4439 17.3347 20.0042C17.5733 20.5095 17.61 20.5187 18.3533 20.3625C18.8122 20.2614 18.8213 20.2614 18.7663 19.9675C18.7296 19.8113 18.6837 19.5082 18.647 19.3061L18.6011 18.9202L19.9409 18.8559C20.6751 18.8192 21.5836 18.8192 21.9598 18.8559L22.6481 18.9202L22.7031 19.2509C22.8683 20.2614 23.474 21.1158 24.1623 21.2995C25.3369 21.6118 26.2638 20.8769 26.5115 19.4255C26.6033 18.9019 26.6492 18.8008 26.8327 18.7549C27.1356 18.6814 27.209 18.7549 27.2824 19.1499C27.365 19.646 27.7045 20.3257 28.2001 20.978C28.4295 21.2903 28.6222 21.5843 28.6222 21.6394C28.6222 21.8139 28.1634 22.0987 27.5577 22.3008C27.2365 22.411 26.9704 22.5396 26.9704 22.5856C26.9704 22.6315 27.0805 22.7326 27.209 22.8244C27.4292 22.9622 27.4384 23.0081 27.3925 23.4858C27.2182 24.9924 27.0254 26.0672 26.8603 26.453C26.6951 26.8388 26.0802 27.5278 25.8875 27.537C25.8508 27.5462 25.6397 27.5829 25.4103 27.6289C24.3733 27.8218 20.7301 26.8572 19.1976 25.9753C18.4267 25.5344 17.6192 24.4688 17.1053 23.2194C16.9676 22.8887 16.8483 22.6131 16.8391 22.6039C16.83 22.5948 16.6556 22.6315 16.4445 22.6866C15.6553 22.8795 14.5174 22.1997 14.031 21.2352C13.3703 19.9124 14.0035 18.4425 15.2424 18.4425C15.4902 18.4425 15.8297 18.4977 16.0041 18.5712ZM17.1512 24.6892C17.8761 25.9202 19.7941 27.9963 21.033 28.9058C21.4735 29.2273 21.5652 29.3375 21.5193 29.4937C21.4918 29.6039 21.4643 30.1827 21.4643 30.7798V31.8729L21.033 31.5147C20.0694 30.7155 18.39 29.6131 17.1053 28.9425C15.949 28.3362 15.7655 28.2168 15.8022 28.0514C15.8205 27.9412 16.0224 26.9858 16.2335 25.911C16.4537 24.8362 16.6556 23.9819 16.6923 24.0003C16.729 24.0278 16.9309 24.331 17.1512 24.6892ZM14.4899 27.3533C14.2605 27.3992 13.6273 27.4727 13.0858 27.5278C12.5444 27.5829 12.0213 27.6656 11.9387 27.7115C11.7644 27.8126 11.7185 27.7942 13.2969 28.3638C15.5819 29.1997 16.7107 29.6866 18.023 30.4123C19.1334 31.0186 20.7668 32.1026 21.8589 32.9477C22.8592 33.7102 22.8133 33.7102 23.0886 33.0029C23.318 32.4149 23.1436 31.5239 22.6573 30.8624C22.5104 30.6512 22.382 30.4583 22.382 30.4215C22.382 30.2745 23.6208 31.4779 23.8227 31.827C24.0246 32.1761 24.0521 32.3047 24.0063 32.7181C23.9512 33.2325 23.7126 33.8021 23.3272 34.3165C23.1987 34.4819 23.1161 34.638 23.1345 34.6656C23.1987 34.7299 24.1164 33.9766 24.2265 33.7745C24.2724 33.6735 24.355 33.6183 24.41 33.6459C24.7588 33.8664 26.1353 36.3926 26.1445 36.8244C26.1445 37.1091 23.7034 37.7246 21.8405 37.9175C20.6567 38.037 19.5922 38.037 18.2983 37.9175C16.729 37.7706 16.8759 37.8992 16.9309 36.7417L16.986 35.7588L16.4629 36.6315C16.1692 37.1091 15.9306 37.5133 15.9123 37.5317C15.8756 37.5685 14.7377 37.2469 14.1228 37.0265C12.8013 36.5672 9.99323 35.1708 9.99323 34.9779C9.99323 34.8309 10.9293 33.7837 11.4156 33.3979C12.2048 32.7548 12.7555 32.5711 14.0402 32.516C15.9398 32.4425 18.5552 33.0121 21.4643 34.142C22.226 34.4359 21.7946 34.142 20.4548 33.4714C17.9771 32.2128 16.518 31.7719 14.6092 31.6984C13.0216 31.6341 12.4251 31.7351 11.3881 32.2312C10.7824 32.5252 10.4429 32.7732 9.79134 33.4071L8.96542 34.2155L8.55246 33.8204L8.1395 33.4254L8.17621 32.617C8.20374 32.0199 8.26798 31.6892 8.42399 31.3769C8.71765 30.7614 9.82804 29.5029 10.0483 29.5304C10.1401 29.5396 10.5805 29.6499 11.0302 29.7785C11.4707 29.8979 11.8286 29.9714 11.8286 29.9438C11.8286 29.9071 11.6451 29.7601 11.4248 29.6223C11.1954 29.4845 10.865 29.1997 10.6815 28.9884C10.3603 28.6394 10.3419 28.5842 10.3878 28.1525C10.4245 27.9045 10.5071 27.6013 10.5897 27.4819L10.7274 27.2614L12.8197 27.2706C14.1687 27.2798 14.756 27.3073 14.4899 27.3533Z" fill="#2F290D"></path>
<path d="M14.7095 19.4897L14.4434 19.7194L14.8655 19.7286C15.1683 19.7286 15.3335 19.7837 15.4528 19.9123C15.618 20.096 15.618 20.1052 15.4253 20.3073C15.3152 20.4267 15.1959 20.6564 15.1683 20.8309L15.1133 21.1525L15.3794 20.8677C15.7648 20.4543 16.0126 20.3992 16.343 20.6472C16.4898 20.7574 16.6274 20.8309 16.655 20.8126C16.7467 20.7207 16.187 19.7929 15.9117 19.5816C15.4528 19.2325 15.0399 19.1958 14.7095 19.4897Z" fill="#2F290D"></path>
</g>
<defs>
<clipPath id="clip0_128_910">
<rect width="40" height="40" fill="white"></rect>
</clipPath>
<clipPath id="SvgjsClipPath1072"><rect width="1000" height="1000" x="0" y="0" rx="500" ry="500"></rect></clipPath></defs>
</svg></svg></g></g></svg>